# xmcd
#
# Track frame offsets:
#	150
#	29320
#	50318
#	70321
#	88320
#	100194
#	129419
#	156419
#	193397
#	210918
#
# Disc length: 3002 seconds
#
# Revision: 1
# Processed by: cddbd v1.5PL3 Copyright (c) Steve Scherf et al.
# Submitted via: CDex 1.50Beta5
#
DISCID=8b0bb80a
DTITLE=POPKORN - heart of heaven
DYEAR=1900
DGENRE=
TTITLE0=夜想(YR Next Style ReMix)
TTITLE1=輝く季節(Rank One Mix)
TTITLE2=望郷(Happy Dream Mix)
TTITLE3=神薙(Sanctuary Mix)
TTITLE4=月童(Moonchild's Overblast Mix)
TTITLE5=雨(Vacant MIX)
TTITLE6=双星(The 7th Night of the 7th Moon Mix)
TTITLE7=月下(Deadline Mix)
TTITLE8=憂い(Extended ReMIX)
TTITLE9=夏影(Morning Star Mix)
EXTD=
EXTT0=
EXTT1=
EXTT2=
EXTT3=
EXTT4=
EXTT5=
EXTT6=
EXTT7=
EXTT8=
EXTT9=
PLAYORDER=
